<svg xmlns="http://www.w3.org/2000/svg" id="emoji" viewBox="0 0 72 72"><g id="line"><path fill="none" stroke="#000" stroke-miterlimit="10" stroke-width="2" d="M59.0349,60H12.9651 C12.4343,60,12,59.5657,12,59.0349V12.9651C12,12.4343,12.4343,12,12.9651,12h46.0698C59.5657,12,60,12.4343,60,12.9651v46.0698 C60,59.5657,59.5657,60,59.0349,60z"/><line x1="39.052" x2="39.052" y1="31.152" y2="40.598" fill="none" stroke="#000" stroke-linecap="round" stroke-linejoin="round" stroke-miterlimit="10" stroke-width="2"/><line x1="39.052" x2="44.449" y1="37.277" y2="31.152" fill="none" stroke="#000" stroke-linecap="round" stroke-linejoin="round" stroke-miterlimit="10" stroke-width="2"/><line x1="41.65" x2="44.884" y1="34.329" y2="40.598" fill="none" stroke="#000" stroke-linecap="round" stroke-linejoin="round" stroke-miterlimit="10" stroke-width="2"/><path fill="none" stroke="#000" stroke-linecap="round" stroke-linejoin="round" stroke-miterlimit="10" stroke-width="2" d="M31.4895,40.5976L31.4895,40.5976c-1.863,0-3.3733-1.5103-3.3733-3.3733v-2.6986c0-1.863,1.5103-3.3733,3.3733-3.3733l0,0 c1.863,0,3.3733,1.5103,3.3733,3.3733v2.6986C34.8628,39.0873,33.3525,40.5976,31.4895,40.5976z"/></g></svg>