<svg xmlns="http://www.w3.org/2000/svg" id="emoji" viewBox="0 0 72 72"><g id="line"><rect width="48" height="38" x="12" y="17" fill="none" stroke="#000" stroke-linecap="round" stroke-linejoin="round" stroke-miterlimit="10" stroke-width="2"/><polyline fill="none" stroke="#000" stroke-linecap="round" stroke-linejoin="round" stroke-miterlimit="10" stroke-width="2" points="12 24.937 33.959 24.937 33.959 46.98 12 46.98"/><polyline fill="none" stroke="#000" stroke-linecap="round" stroke-linejoin="round" stroke-miterlimit="10" stroke-width="2" points="60 46.98 38.23 46.98 38.23 24.937 60 24.937"/><circle cx="18.095" cy="20.908" r="1.079" fill="#000" stroke="none"/><circle cx="24.095" cy="20.908" r="1.079" fill="#000" stroke="none"/><circle cx="30.095" cy="20.908" r="1.079" fill="#000" stroke="none"/><circle cx="36.095" cy="20.908" r="1.079" fill="#000" stroke="none"/><circle cx="42.095" cy="20.908" r="1.079" fill="#000" stroke="none"/><circle cx="48.095" cy="20.908" r="1.079" fill="#000" stroke="none"/><circle cx="54.095" cy="20.908" r="1.079" fill="#000" stroke="none"/><circle cx="18.078" cy="51.026" r="1.079" fill="#000" stroke="none"/><circle cx="24.078" cy="51.026" r="1.079" fill="#000" stroke="none"/><circle cx="30.078" cy="51.026" r="1.079" fill="#000" stroke="none"/><circle cx="36.078" cy="51.026" r="1.079" fill="#000" stroke="none"/><circle cx="42.078" cy="51.026" r="1.079" fill="#000" stroke="none"/><circle cx="48.078" cy="51.026" r="1.079" fill="#000" stroke="none"/><circle cx="54.078" cy="51.026" r="1.079" fill="#000" stroke="none"/></g></svg>