<svg xmlns="http://www.w3.org/2000/svg" id="emoji" version="1.1" viewBox="0 0 72 72"><g id="line"><path fill="none" stroke="#000" stroke-linecap="round" stroke-linejoin="round" stroke-miterlimit="10" stroke-width="2" d="M29.3922,18.5962l4.3865-4.3865c2.7764-2.7764,7.3196-2.7764,10.096,0l3.5778,3.5778c2.7764,2.7765,2.7764,7.3197,0,10.0961 L43.0661,32.27"/><path fill="none" stroke="#000" stroke-linecap="round" stroke-linejoin="round" stroke-miterlimit="10" stroke-width="2" d="M29.7195,44.009c-2.2958,0.4945-4.7929-0.1458-6.5678-1.9207l-3.5778-3.5778c-2.7764-2.7764-2.7764-7.3196,0-10.096l4.3033-4.3033"/><path fill="none" stroke="#000" stroke-linecap="round" stroke-linejoin="round" stroke-miterlimit="10" stroke-width="2" d="M33.5707,54.6877V31.8448c0-1.2429,1.0075-2.2505,2.2504-2.2505h0.543c1.2429,0,2.2504,1.0076,2.2504,2.2505v22.8429"/><rect width="27.305" height="5.297" x="22.44" y="54.688" fill="none" stroke="#000" stroke-linecap="round" stroke-linejoin="round" stroke-miterlimit="10" stroke-width="2"/><line x1="20.996" x2="18.573" y1="40.499" y2="42.968" fill="none" stroke="#000" stroke-linecap="round" stroke-linejoin="round" stroke-miterlimit="10" stroke-width="2"/><line x1="41.636" x2="42.17" y1="36.304" y2="36.838" fill="none" stroke="#000" stroke-linecap="round" stroke-linejoin="round" stroke-miterlimit="10" stroke-width="2"/><line x1="24.823" x2="32.42" y1="19.491" y2="27.088" fill="none" stroke="#000" stroke-linecap="round" stroke-linejoin="round" stroke-miterlimit="10" stroke-width="2"/></g></svg>