<svg xmlns="http://www.w3.org/2000/svg" id="emoji" viewBox="0 0 72 72"><g id="line"><path fill="none" stroke="#000" stroke-linecap="round" stroke-linejoin="round" stroke-miterlimit="10" stroke-width="2" d="M20.2,59.5163c-1.4043,0.72-3.0074,1.1774-4.7117,1.1774c-5.5228,0-10-4.2873-10-9.576"/><line x1="54.975" x2="20.141" y1="39.564" y2="59.55" fill="none" stroke="#000" stroke-linecap="round" stroke-linejoin="round" stroke-miterlimit="10" stroke-width="2"/><path fill="none" stroke="#000" stroke-linecap="round" stroke-linejoin="round" stroke-miterlimit="10" stroke-width="2" d="M13.2332,51.1177c0,2.6758,2.8154,5.8041,5.9541,4.331l38.9131-22.2773l0.052,0.0163c1.4248,0.4466,2.2684,2.0549,1.927,3.4478 l-1.6391,0.9404"/><path fill="none" stroke="#000" stroke-linecap="round" stroke-linejoin="round" stroke-miterlimit="10" stroke-width="2" d="M5.4883,51.1177c0-2.1387,1.7338-3.8724,3.8724-3.8724s3.8724,1.7338,3.8724,3.8724"/><line x1="48.214" x2="61.616" y1="24.932" y2="17.25" fill="none" stroke="#000" stroke-linecap="round" stroke-linejoin="round" stroke-miterlimit="10" stroke-width="2"/><line x1="46.7" x2="66.812" y1="30.384" y2="18.877" fill="none" stroke="#000" stroke-linecap="round" stroke-linejoin="round" stroke-miterlimit="10" stroke-width="2"/><line x1="39.291" x2="64.435" y1="25.502" y2="11.083" fill="none" stroke="#000" stroke-linecap="round" stroke-linejoin="round" stroke-miterlimit="10" stroke-width="2"/><path fill="none" stroke="#000" stroke-linecap="round" stroke-linejoin="round" stroke-miterlimit="10" stroke-width="2" d="M23.322,48.2532c-2.2017,1.2619-5.0958,0.3495-6.4642-2.0378s-0.6927-5.3457,1.509-6.6076 c3.9196-2.2465,6.1133-5.9581,4.0787-9.5079l-5.4891-9.6712c0,0,1.4071-2.2402,3.4974-1.8753 c0.3791,0.0662,0.7427-0.0996,0.8868-0.4555c0.8072-1.9941,3.9289-9.1479,7.1264-3.569l12.7285,22.2079 c0.3032,0.5289,0.1535,1.1843-0.3343,1.4639L23.322,48.2532"/><line x1="20.545" x2="31.78" y1="26.752" y2="20.31" fill="none" stroke="#000" stroke-linecap="round" stroke-linejoin="round" stroke-miterlimit="10" stroke-width="2"/><line x1="19.578" x2="21.381" y1="38.826" y2="41.972" fill="none" stroke="#000" stroke-linecap="round" stroke-linejoin="round" stroke-miterlimit="10" stroke-width="2"/><line x1="22.489" x2="24.933" y1="35.639" y2="39.902" fill="none" stroke="#000" stroke-linecap="round" stroke-linejoin="round" stroke-miterlimit="10" stroke-width="2"/><line x1="22.553" x2="26.809" y1="30.294" y2="27.854" fill="none" stroke="#000" stroke-linecap="round" stroke-linejoin="round" stroke-miterlimit="10" stroke-width="2"/></g></svg>