<svg xmlns="http://www.w3.org/2000/svg" id="emoji" viewBox="0 0 72 72"><g id="line"><path fill="none" stroke="#000" stroke-linecap="round" stroke-linejoin="round" stroke-miterlimit="10" stroke-width="2" d="M24.3679,55.4945c-9.0883,0-16.4558-7.3675-16.4558-16.4558s7.3675-16.4558,16.4558-16.4558"/><line x1="25.241" x2="37.242" y1="55.495" y2="55.495" fill="none" stroke="#000" stroke-linecap="round" stroke-linejoin="round" stroke-miterlimit="10" stroke-width="2"/><path fill="none" stroke="#000" stroke-linecap="round" stroke-linejoin="round" stroke-miterlimit="10" stroke-width="2" d="M37.5349,48.5022c1.9313,0.081,3.4313,1.7123,3.3502,3.6436c-0.081,1.9313-1.7123,3.4313-3.6436,3.3502"/><path fill="none" stroke="#000" stroke-linecap="round" stroke-linejoin="round" stroke-miterlimit="10" stroke-width="2" d="M37.7678,41.5052c1.9313,0.081,3.4313,1.7123,3.3502,3.6436c-0.081,1.9313-1.7123,3.4313-3.6436,3.3502"/><path fill="none" stroke="#000" stroke-linecap="round" stroke-linejoin="round" stroke-miterlimit="10" stroke-width="2" d="M37.9016,41.5093c1.9268,0.155,3.3631,1.8426,3.2081,3.7694c-0.155,1.9268-1.8426,3.3631-3.7694,3.2081"/><path fill="none" stroke="#000" stroke-linecap="round" stroke-linejoin="round" stroke-miterlimit="10" stroke-width="2" d="M38.2461,34.4677c1.929,0.1237,3.3925,1.7878,3.2688,3.7168s-1.7878,3.3925-3.7168,3.2688"/><path fill="none" stroke="#000" stroke-linecap="round" stroke-linejoin="round" stroke-miterlimit="10" stroke-width="2" d="M36.0224,17.5139c1.3904-1.3429,3.6061-1.3044,4.949,0.086c1.3429,1.3904,1.3044,3.6061-0.086,4.949"/><path fill="none" stroke="#000" stroke-linecap="round" stroke-linejoin="round" stroke-miterlimit="10" stroke-width="2" d="M60.6184,27.4677c1.933,0,3.5,1.567,3.5,3.5s-1.567,3.5-3.5,3.5"/><line x1="38.283" x2="60.618" y1="34.468" y2="34.468" fill="none" stroke="#000" stroke-linecap="round" stroke-linejoin="round" stroke-miterlimit="10" stroke-width="2"/><line x1="60.618" x2="32.828" y1="27.468" y2="27.468" fill="none" stroke="#000" stroke-linecap="round" stroke-linejoin="round" stroke-miterlimit="10" stroke-width="2"/><line x1="38.672" x2="40.886" y1="24.507" y2="22.549" fill="none" stroke="#000" stroke-linecap="round" stroke-linejoin="round" stroke-miterlimit="10" stroke-width="2"/><path fill="none" stroke="#000" stroke-linecap="round" stroke-linejoin="round" stroke-miterlimit="10" stroke-width="2" d="M33.7028,19.2815c-2.1439,1.9526-5.1677,3.3734-9.5218,3.3013"/><line x1="36.022" x2="33.642" y1="17.514" y2="19.335" fill="none" stroke="#000" stroke-linecap="round" stroke-linejoin="round" stroke-miterlimit="10" stroke-width="2"/></g></svg>