<svg xmlns="http://www.w3.org/2000/svg" id="emoji" viewBox="0 0 72 72"><g id="line"><path fill="none" stroke="#000" stroke-linecap="round" stroke-linejoin="round" stroke-miterlimit="10" stroke-width="2" d="M55.1712,45.8674"/><path fill="none" stroke="#000" stroke-linecap="round" stroke-linejoin="round" stroke-miterlimit="10" stroke-width="2" d="M16.1319,13.7776c-3.292,0-5.9607,2.6687-5.9607,5.9607v38.0785c0,3.292,2.6687,5.9607,5.9607,5.9607h38.0785 c3.292,0,5.9607-2.6687,5.9607-5.9607V19.7383c0-3.292-2.6687-5.9607-5.9607-5.9607"/><path fill="none" stroke="#000" stroke-linecap="round" stroke-linejoin="round" stroke-miterlimit="10" stroke-width="2" d="M24.3844,13.8748l7.8234,8.4142l-4.9887,8.0302c-11.1293-13.7647-7.3184-17.5417-7.3184-17.5417s14.3783-13,30.6143,0 c0,0,3.8109,3.7769-7.3184,17.5417l-4.9887-8.0302l7.9138-8.5115"/><path fill="none" stroke="#000" stroke-linecap="round" stroke-linejoin="round" stroke-miterlimit="10" stroke-width="2" d="M19.9176,13.7776"/><polygon fill="none" stroke="#000" stroke-linecap="round" stroke-linejoin="round" stroke-miterlimit="10" stroke-width="2" points="36.679 31.62 33.672 31.62 29.646 63.778 40.696 63.778"/><polygon fill="none" stroke="#000" stroke-linecap="round" stroke-linejoin="round" stroke-miterlimit="10" stroke-width="2" points="36.679 24.663 33.672 24.663 32.168 28.141 33.672 31.62 36.679 31.62 38.183 28.141"/></g></svg>