<svg xmlns="http://www.w3.org/2000/svg" id="emoji" viewBox="0 0 72 72"><g id="line"><g id="line_1_"><path fill="none" stroke="#000" stroke-linecap="round" stroke-linejoin="round" stroke-miterlimit="10" stroke-width="2" d="M28.2632,48.9508L36,58.5397l20.7339-25.6975l-0.0043-0.0034C58.4597,30.6942,59.5,27.9699,59.5,25 c0-6.9036-5.5964-12.5-12.5-12.5c-4.7533,0-8.8861,2.6536-11,6.5598C33.8861,15.1536,29.7533,12.5,25,12.5 c-6.9036,0-12.5,5.5964-12.5,12.5c0,2.9699,1.0403,5.6942,2.7703,7.8387l-0.0043,0.0034l7.8527,9.7326"/></g><line x1="34.5" x2="21" y1="37.5" y2="51" fill="none" stroke="#000" stroke-linecap="round" stroke-linejoin="round" stroke-miterlimit="10" stroke-width="2"/><line x1="62.092" x2="58" y1="9.908" y2="14" fill="none" stroke="#000" stroke-linecap="round" stroke-linejoin="round" stroke-miterlimit="10" stroke-width="2"/><polygon fill="none" stroke="#000" stroke-linecap="round" stroke-linejoin="round" stroke-miterlimit="10" stroke-width="2" points="20.596 51.454 13.646 51.454 7.193 57.907 14.143 57.907 14.143 64.857 20.596 58.404"/><polygon fill="none" stroke="#000" stroke-linecap="round" stroke-linejoin="round" stroke-miterlimit="10" stroke-width="2" points="68.18 3.628 66.924 8.48 65.669 13.331 62.073 9.735 58.477 6.139 63.328 4.884"/></g></svg>