<svg xmlns="http://www.w3.org/2000/svg" id="emoji" viewBox="0 0 72 72"><g id="line"><ellipse cx="22" cy="19.849" fill="none" fill-rule="evenodd" stroke="#000" stroke-linecap="round" stroke-linejoin="round" stroke-miterlimit="10" stroke-width="2" clip-rule="evenodd" rx="3" ry="3" transform="matrix(0.0096 -1 1 0.0096 1.9414 41.6581)"/><line x1="26.006" x2="46.056" y1="12.122" y2="12.122" fill="none" stroke="#000" stroke-linecap="round" stroke-linejoin="round" stroke-miterlimit="10" stroke-width="2"/><polyline fill="none" stroke="#000" stroke-linecap="round" stroke-linejoin="round" stroke-miterlimit="10" stroke-width="2" points="54.016 12.122 60 12.122 60 28.122 12 28.122 12 12.122 18.032 12.122"/><line x1="22.015" x2="22.015" y1="8.688" y2="18.998" fill="none" fill-rule="evenodd" stroke="#000" stroke-linecap="round" stroke-linejoin="round" stroke-miterlimit="10" stroke-width="2" clip-rule="evenodd"/><ellipse cx="50.001" cy="19.849" fill="none" fill-rule="evenodd" stroke="#000" stroke-linecap="round" stroke-linejoin="round" stroke-miterlimit="10" stroke-width="2" clip-rule="evenodd" rx="3" ry="3" transform="matrix(0.0096 -1 1 0.0096 29.6742 69.6575)"/><line x1="50.016" x2="50.016" y1="8.688" y2="18.998" fill="none" fill-rule="evenodd" stroke="#000" stroke-linecap="round" stroke-linejoin="round" stroke-miterlimit="10" stroke-width="2" clip-rule="evenodd"/><path fill="none" stroke="#000" stroke-linecap="round" stroke-linejoin="round" stroke-miterlimit="10" stroke-width="2" d="M34.3355,38.092c0.5248-2.5644,2.7937-4.4936,5.5134-4.4936l0,0c1.5539,0,2.9609,0.63,3.9793,1.6484 c1.5843,1.5842,1.438,4.2167-0.0484,5.8928l-9.5586,10.7799h4.7601"/><polyline fill="none" stroke="#000" stroke-linecap="round" stroke-linejoin="round" stroke-miterlimit="10" stroke-width="2" points="23.276 37.398 28.349 33.598 28.349 51.919"/><polyline fill="none" stroke="#000" stroke-linecap="round" stroke-linejoin="round" stroke-miterlimit="10" stroke-width="2" points="11.997 28.092 11.997 60.092 43.656 60.086 59.997 48.038 59.997 28.092"/><polyline fill="none" stroke="#000" stroke-linecap="round" stroke-linejoin="round" stroke-miterlimit="10" stroke-width="2" points="59.746 48.038 43.138 48.038 43.138 53.517"/></g></svg>