<svg xmlns="http://www.w3.org/2000/svg" id="emoji" viewBox="0 0 72 72"><g id="line"><polyline fill="none" stroke="#000" stroke-linecap="round" stroke-linejoin="round" stroke-miterlimit="10" stroke-width="2" points="53.349 12.273 60 12.273 60 28.273 12 28.273 12 12.273 20.461 12.273"/><line x1="25.566" x2="48.48" y1="12.273" y2="12.273" fill="none" stroke="#000" stroke-linecap="round" stroke-linejoin="round" stroke-miterlimit="10" stroke-width="2"/><path fill="none" fill-rule="evenodd" stroke="#000" stroke-linecap="round" stroke-linejoin="round" stroke-miterlimit="10" stroke-width="2" d="M53.3494,12.2752l-1.9644,3.1214c0,0,0.9936,2.767,1.0851,2.8995c0.3399,0.4916,0.5366,1.0894,0.5304,1.7326 c-0.0158,1.6567-1.3717,2.987-3.0285,2.9712c-1.6568-0.0159-2.987-1.3718-2.9712-3.0286c0.006-0.6212,0.2003-1.1966,0.5284-1.6723 c0.0816-0.1184-0.9091-2.9024-0.9091-2.9024l1.8603-3.1332" clip-rule="evenodd"/><path fill="none" fill-rule="evenodd" stroke="#000" stroke-linecap="round" stroke-linejoin="round" stroke-miterlimit="10" stroke-width="2" d="M25.3298,12.2752l-1.9644,3.1214c0,0,0.9936,2.767,1.0851,2.8995c0.3399,0.4916,0.5366,1.0894,0.5304,1.7326 c-0.0158,1.6567-1.3717,2.987-3.0285,2.9712c-1.6568-0.0159-2.987-1.3718-2.9712-3.0286c0.006-0.6212,0.2003-1.1966,0.5284-1.6723 c0.0816-0.1184-0.9091-2.9024-0.9091-2.9024l1.8603-3.1332" clip-rule="evenodd"/><path fill="none" stroke="#000" stroke-linecap="round" stroke-linejoin="round" stroke-miterlimit="10" stroke-width="2" d="M34.3355,38.092c0.5248-2.5644,2.7937-4.4936,5.5134-4.4936l0,0c1.5539,0,2.9609,0.63,3.9793,1.6484 c1.5843,1.5842,1.438,4.2167-0.0484,5.8928l-9.5586,10.7799h4.7601"/><polyline fill="none" stroke="#000" stroke-linecap="round" stroke-linejoin="round" stroke-miterlimit="10" stroke-width="2" points="23.276 37.398 28.349 33.598 28.349 51.919"/><polyline fill="none" stroke="#000" stroke-linecap="round" stroke-linejoin="round" stroke-miterlimit="10" stroke-width="2" points="11.997 28.092 11.997 60.092 43.656 60.086 59.997 48.038 59.997 28.092"/><polyline fill="none" stroke="#000" stroke-linecap="round" stroke-linejoin="round" stroke-miterlimit="10" stroke-width="2" points="59.746 48.038 43.138 48.038 43.138 53.517"/></g></svg>