<svg xmlns="http://www.w3.org/2000/svg" id="emoji" viewBox="0 0 72 72"><g id="line"><path fill="none" stroke="#000" stroke-linecap="round" stroke-linejoin="round" stroke-miterlimit="10" stroke-width="2" d="M33.7378,45.9332c8.2843,0,15-6.7157,15-15c0-8.2842-6.7157-15-15-15V45.9332z"/><path fill="none" stroke="#000" stroke-linecap="round" stroke-linejoin="round" stroke-miterlimit="10" stroke-width="2" d="M52.6418,27.9625c1.6565,0.0351,2.9709,1.4064,2.9358,3.0629c-0.0351,1.6565-1.4064,2.9709-3.0629,2.9358"/><path fill="none" stroke="#000" stroke-linecap="round" stroke-linejoin="round" stroke-miterlimit="10" stroke-width="2" d="M17.9115,32.4905h-4.3872c0,0-0.7404,0.0215-0.7404-1.5303c0-1.5519,0.7404-1.5305,0.7404-1.5305h4.3872V32.4905z"/><line x1="24.131" x2="33.738" y1="30.933" y2="30.933" fill="none" stroke="#000" stroke-linecap="round" stroke-linejoin="round" stroke-miterlimit="10" stroke-width="2"/><line x1="22.121" x2="33.738" y1="27.649" y2="15.933" fill="none" stroke="#000" stroke-linecap="round" stroke-linejoin="round" stroke-miterlimit="10" stroke-width="2"/><line x1="22.156" x2="33.738" y1="34.274" y2="45.933" fill="none" stroke="#000" stroke-linecap="round" stroke-linejoin="round" stroke-miterlimit="10" stroke-width="2"/><line x1="40.238" x2="58.831" y1="59.999" y2="59.999" fill="none" stroke="#000" stroke-linecap="round" stroke-linejoin="round" stroke-miterlimit="10" stroke-width="2"/><polyline fill="none" stroke="#000" stroke-linecap="round" stroke-linejoin="round" stroke-miterlimit="10" stroke-width="2" points="48.8 59.999 51.704 38.197 54.953 38.197 52.049 59.999"/></g></svg>