<svg xmlns="http://www.w3.org/2000/svg" id="emoji" version="1.1" viewBox="0 0 72 72"><g id="line"><path fill="none" stroke="#000" stroke-linecap="round" stroke-linejoin="round" stroke-miterlimit="10" stroke-width="2" d="M12.1256,33.1975v16.0038c0,1.6912,1.4076,3.0623,3.1441,3.0623h41.6606c1.7365,0,3.1441-1.3711,3.1441-3.0623V25.98 c0-1.6912-1.4076-3.0622-3.1441-3.0622H29.4665"/><line x1="47.152" x2="59.618" y1="33.197" y2="33.197" fill="none" stroke="#000" stroke-linecap="round" stroke-linejoin="round" stroke-miterlimit="10" stroke-width="2"/><path fill="none" stroke="#000" stroke-linecap="round" stroke-linejoin="round" stroke-miterlimit="10" stroke-width="2" d="M30.6138,28.1268c1.0157-0.3475,2.1051-0.5361,3.2386-0.5361c5.5229,0,10,4.4771,10,10c0,5.5228-4.4771,10-10,10 c-5.5228,0-10-4.4772-10-10c0-1.0285,0.1553-2.0207,0.4436-2.9544"/><circle cx="33.852" cy="37.591" r="5" fill="none" stroke="#000" stroke-linecap="round" stroke-linejoin="round" stroke-miterlimit="10" stroke-width="2"/><polygon fill="none" stroke="#000" stroke-linecap="round" stroke-linejoin="round" stroke-miterlimit="10" stroke-width="2" points="13.874 22.56 5.611 32.172 15.735 26.697 17.075 39.029 21.02 27.719 27.944 31.89 22.435 22.913 31.889 17.4 20.276 20.58 19.234 9.907 16.107 20.086 5.611 15.774"/></g></svg>