<svg xmlns="http://www.w3.org/2000/svg" id="emoji" viewBox="0 0 72 72"><g id="line"><path fill="none" stroke="#000" stroke-linecap="round" stroke-linejoin="round" stroke-miterlimit="10" stroke-width="2" d="M45.3461,29.1377l0.3297-0.5876c0.6377-1.0595,0.444-2.2743-0.3788-2.879c-0.8227-0.6047-2.2838-0.09-2.9215,0.9694 l-1.1633,1.7874"/><line x1="48.608" x2="47.639" y1="21.428" y2="22.454" fill="none" stroke="#000" stroke-linecap="round" stroke-linejoin="round" stroke-miterlimit="10" stroke-width="2"/><line x1="41.647" x2="42.528" y1="20.457" y2="21.712" fill="none" stroke="#000" stroke-linecap="round" stroke-linejoin="round" stroke-miterlimit="10" stroke-width="2"/><line x1="46.898" x2="46.943" y1="32.025" y2="32.186" fill="none" stroke="#000" stroke-linecap="round" stroke-linejoin="round" stroke-miterlimit="10" stroke-width="2"/><line x1="37.647" x2="38.845" y1="25.526" y2="25.789" fill="none" stroke="#000" stroke-linecap="round" stroke-linejoin="round" stroke-miterlimit="10" stroke-width="2"/><line x1="50.652" x2="49.364" y1="27.953" y2="27.51" fill="none" stroke="#000" stroke-linecap="round" stroke-linejoin="round" stroke-miterlimit="10" stroke-width="2"/><line x1="21.956" x2="34.263" y1="43.993" y2="43.993" fill="none" stroke="#000" stroke-linecap="round" stroke-linejoin="round" stroke-miterlimit="10" stroke-width="2"/><line x1="21.956" x2="34.263" y1="47.993" y2="47.993" fill="none" stroke="#000" stroke-linecap="round" stroke-linejoin="round" stroke-miterlimit="10" stroke-width="2"/><line x1="21.956" x2="34.263" y1="51.993" y2="51.993" fill="none" stroke="#000" stroke-linecap="round" stroke-linejoin="round" stroke-miterlimit="10" stroke-width="2"/><line x1="21.956" x2="34.263" y1="43.993" y2="43.993" fill="none" stroke="#000" stroke-linecap="round" stroke-linejoin="round" stroke-miterlimit="10" stroke-width="2"/><line x1="21.956" x2="34.263" y1="47.993" y2="47.993" fill="none" stroke="#000" stroke-linecap="round" stroke-linejoin="round" stroke-miterlimit="10" stroke-width="2"/><line x1="21.956" x2="34.263" y1="51.993" y2="51.993" fill="none" stroke="#000" stroke-linecap="round" stroke-linejoin="round" stroke-miterlimit="10" stroke-width="2"/><polygon fill="none" stroke="#000" stroke-linecap="round" stroke-linejoin="round" stroke-miterlimit="10" stroke-width="2" points="42.678 50.343 42.678 44.733 42.665 44.733 42.639 31.864 30.268 31.928 16.838 42.465 16.838 55.952 41.706 55.952 42.678 55.952 49.323 55.952 49.323 50.343"/><path fill="none" stroke="#000" stroke-linecap="round" stroke-linejoin="round" stroke-miterlimit="10" stroke-width="2" d="M61.7625,46.4939h-6.856v-6.5555h6.856c0,0-0.2947,0.8214-0.2947,3.2778C61.4678,45.6725,61.7625,46.4939,61.7625,46.4939z"/><polyline fill="none" stroke="#000" stroke-linecap="round" stroke-linejoin="round" stroke-miterlimit="10" stroke-width="2" points="56.059 46.494 48.05 46.494 48.05 39.938 56.059 39.938"/><path fill="none" stroke="#000" stroke-linecap="round" stroke-linejoin="round" stroke-miterlimit="10" stroke-width="2" d="M14.3144,40.5951c-4.003-2.1406-6.1592-6.8223-4.937-11.3972c1.4254-5.3358,6.9064-8.5057,12.2421-7.0803 c3.6206,0.9672,6.244,3.8018,7.1111,7.1913"/><path fill="none" stroke="#000" stroke-linecap="round" stroke-linejoin="round" stroke-miterlimit="10" stroke-width="2" d="M22.7534,33.62l-1.5938-1.7619c-0.8012-0.9419-2.0144-1.1452-2.8497-0.5579c-0.8352,0.5873-0.8128,2.1362-0.0117,3.0781 l1.3238,1.6721"/><line x1="18.235" x2="18.385" y1="25.54" y2="26.944" fill="none" stroke="#000" stroke-linecap="round" stroke-linejoin="round" stroke-miterlimit="10" stroke-width="2"/><line x1="12.972" x2="14.498" y1="30.199" y2="30.344" fill="none" stroke="#000" stroke-linecap="round" stroke-linejoin="round" stroke-miterlimit="10" stroke-width="2"/><line x1="14.223" x2="15.202" y1="36.534" y2="35.794" fill="none" stroke="#000" stroke-linecap="round" stroke-linejoin="round" stroke-miterlimit="10" stroke-width="2"/><line x1="24.522" x2="23.348" y1="28.23" y2="28.92" fill="none" stroke="#000" stroke-linecap="round" stroke-linejoin="round" stroke-miterlimit="10" stroke-width="2"/><path fill="none" stroke="#000" stroke-linecap="round" stroke-linejoin="round" stroke-miterlimit="10" stroke-width="2" d="M47.0768,35.6781c0.6124-0.1736,1.3634-0.466,2.4997-1.1004c1.9943-1.1134,2.9915-2.7252,2.9915-2.7252 c2.0117-2.8624,2.46-6.6986,0.8411-10.0784c-2.3858-4.9809-8.3577-7.0847-13.3387-4.6989 c-4.2707,2.0456-6.4262,6.7276-5.4503,11.1608"/></g></svg>