<svg xmlns="http://www.w3.org/2000/svg" id="emoji" viewBox="0 0 72 72"><g id="line"><line x1="57.577" x2="51.003" y1="25.129" y2="30.318" fill="none" stroke="#000" stroke-linecap="round" stroke-linejoin="round" stroke-miterlimit="10" stroke-width="2"/><line x1="43.898" x2="51.011" y1="22.964" y2="17.562" fill="none" stroke="#000" stroke-linecap="round" stroke-linejoin="round" stroke-miterlimit="10" stroke-width="2"/><polygon fill="none" stroke="#000" stroke-linecap="round" stroke-linejoin="round" stroke-miterlimit="10" stroke-width="2" points="51.011 17.573 57.592 25.129 62.588 24.313 54.32 11.442"/><polyline fill="none" stroke="#000" stroke-linecap="round" stroke-linejoin="round" stroke-miterlimit="10" stroke-width="2" points="15.291 39.425 15.291 55.976 50.601 55.976 50.601 23.264 38.594 23.264 38.594 20.509 15.521 20.509"/><polyline fill="none" stroke="#000" stroke-linecap="round" stroke-linejoin="round" stroke-miterlimit="10" stroke-width="2" points="54.779 33.213 56.842 33.207 56.842 52.179 54.779 52.185"/><path fill="none" stroke="#000" stroke-linecap="round" stroke-linejoin="round" stroke-miterlimit="10" stroke-width="2" d="M42.3054,52H23.7011V30.3178h18.6043c1.6569,0,3,1.3431,3,3V49C45.3054,50.6569,43.9623,52,42.3054,52z"/><circle cx="34.258" cy="43.337" r="5" fill="none" stroke="#000" stroke-linecap="round" stroke-linejoin="round" stroke-miterlimit="10" stroke-width="2"/><rect width="3.626" height="18.916" x="11.666" y="20.509" fill="none" stroke="#000" stroke-linecap="round" stroke-linejoin="round" stroke-miterlimit="10" stroke-width="2"/></g></svg>