<svg xmlns="http://www.w3.org/2000/svg" id="emoji" viewBox="0 0 72 72"><g id="line"><path fill="none" stroke="#000" stroke-linecap="round" stroke-linejoin="round" stroke-miterlimit="10" stroke-width="2" d="M15.2697,22.9178c-1.7365,0-3.1441,1.371-3.1441,3.0622v23.2213c0,1.6912,1.4076,3.0623,3.1441,3.0623h41.6606 c1.7365,0,3.1441-1.3711,3.1441-3.0623V25.98c0-1.6912-1.4076-3.0622-3.1441-3.0622H15.2697z"/><line x1="47.152" x2="59.618" y1="33.197" y2="33.197" fill="none" stroke="#000" stroke-linecap="round" stroke-linejoin="round" stroke-miterlimit="10" stroke-width="2"/><line x1="12.582" x2="20.629" y1="33.197" y2="33.197" fill="none" stroke="#000" stroke-linecap="round" stroke-linejoin="round" stroke-miterlimit="10" stroke-width="2"/><circle cx="33.852" cy="37.591" r="10" fill="none" stroke="#000" stroke-linecap="round" stroke-linejoin="round" stroke-miterlimit="10" stroke-width="2"/><circle cx="33.852" cy="37.591" r="5" fill="none" stroke="#000" stroke-linecap="round" stroke-linejoin="round" stroke-miterlimit="10" stroke-width="2"/><path fill="none" stroke="#000" stroke-linecap="round" stroke-linejoin="round" stroke-miterlimit="10" stroke-width="2" d="M27.831,19.1198v-1.0782c0-0.5638-0.4692-1.0208-1.048-1.0208h-7.6766c-0.5787,0-1.048,0.457-1.048,1.0208v1.0782"/></g></svg>