<svg xmlns="http://www.w3.org/2000/svg" id="emoji" viewBox="0 0 72 72"><g id="line"><path fill="none" stroke="#000" stroke-linecap="round" stroke-linejoin="round" stroke-miterlimit="10" stroke-width="2" d="M39.4673,33.4202c0.5811-8.0338-5.889-14.5868-12.8196-14.3688c-6.8728,0.2162-12.4516,7.0826-12.4516,14.3688"/><polygon fill="none" stroke="#000" stroke-linecap="round" stroke-linejoin="round" stroke-miterlimit="10" stroke-width="2" points="41.698 36.321 43.328 36.321 43.328 59.692 10.283 59.692 10.283 36.321 11.913 36.321"/><path fill="none" stroke="#000" stroke-linecap="round" stroke-linejoin="round" stroke-miterlimit="10" stroke-width="2" d="M17.8248,33.4202c0-5.5092,3.979-10.701,8.8809-10.8645c4.9432-0.1648,9.5578,4.79,9.1434,10.8645"/><path fill="none" stroke="#000" stroke-linecap="round" stroke-linejoin="round" stroke-miterlimit="10" stroke-width="2" d="M35.875,34.2898"/><polyline fill="none" stroke="#000" stroke-linecap="round" stroke-linejoin="round" stroke-miterlimit="10" stroke-width="2" points="56.025 36.026 56.282 56.472 51.721 61.032 46.955 56.267 49.876 53.346 46.648 50.117 50.337 46.428 47.126 43.217 47.126 40.187 49.871 37.442 48.602 36.173"/><ellipse cx="51.535" cy="18.109" fill="none" stroke="#000" stroke-linecap="round" stroke-linejoin="round" stroke-miterlimit="10" stroke-width="2" rx="3.521" ry="3.521" transform="matrix(0.7071 -0.7071 0.7071 0.7071 2.2893 41.7451)"/><path fill="none" stroke="#000" stroke-linecap="round" stroke-linejoin="round" stroke-miterlimit="10" stroke-width="2" d="M56.0171,31.6362c3.5704-1.7692,6.0267-5.5901,5.9932-10c-0.0461-6.0573-4.7723-10.9321-10.5563-10.8882 c-5.784,0.044-10.4355,4.9901-10.3894,11.0475c0.0372,4.8974,3.1337,9.0217,7.3751,10.3985"/></g></svg>