<svg xmlns="http://www.w3.org/2000/svg" id="emoji" version="1.1" viewBox="0 0 72 72"><g id="line"><rect width="7" height="5" x="17.5" y="26" fill="none" stroke="#000" stroke-linecap="round" stroke-linejoin="round" stroke-miterlimit="10" stroke-width="2"/><rect width="7" height="24" x="17.5" y="36" fill="none" stroke="#000" stroke-linecap="round" stroke-linejoin="round" stroke-miterlimit="10" stroke-width="2"/><path fill="none" stroke="#000" stroke-linecap="round" stroke-linejoin="round" stroke-miterlimit="10" stroke-width="2" d="M54.5,35.9998c0,1.42-0.37,2.78-1.04,4H30.54c-0.67-1.22-1.04-2.58-1.04-4c0-5.52,5.6-10,12.5-10S54.5,30.4797,54.5,35.9998z"/><path fill="none" stroke="#000" stroke-linecap="round" stroke-linejoin="round" stroke-miterlimit="10" stroke-width="2" d="M55,39.9998v20h-9v-8.09c0-0.59-0.18-1.17-0.5-1.67l-2.84-4.25l-0.66-0.99l-0.66,0.99l-2.84,4.25c-0.32,0.5-0.5,1.08-0.5,1.67v8.09 h-9v-20H55z"/><polygon fill="none" stroke="#000" stroke-linecap="round" stroke-linejoin="round" stroke-miterlimit="10" stroke-width="2" points="21 17 17.5 26 24.5 26"/><polygon fill="none" stroke="#000" stroke-linecap="round" stroke-linejoin="round" stroke-miterlimit="10" stroke-width="2" points="26.5 31 24.5 36 17.5 36 15.5 31"/><circle cx="42" cy="24" r="2" fill="none" stroke="#000" stroke-linecap="round" stroke-linejoin="round" stroke-miterlimit="10" stroke-width="2"/><rect width="0" height="3" x="42" y="19" fill="none" stroke="#000" stroke-linecap="round" stroke-linejoin="round" stroke-miterlimit="10" stroke-width="2"/><path fill="none" stroke="#000" stroke-linecap="round" stroke-linejoin="round" stroke-miterlimit="10" stroke-width="2" d="M46,51.9098v8.09h-8v-8.09c0-0.59,0.18-1.17,0.5-1.67l2.84-4.25l0.66-0.99l0.66,0.99l2.84,4.25 C45.82,50.7397,46,51.3198,46,51.9098z"/></g></svg>