<svg xmlns="http://www.w3.org/2000/svg" id="emoji" viewBox="0 0 72 72"><g id="line"><polyline fill="none" stroke="#000" stroke-linecap="round" stroke-linejoin="round" stroke-miterlimit="10" stroke-width="2" points="16.5 12.503 16.5 4.992 56.5 4.992 56.5 12.875"/><polyline fill="none" stroke="#000" stroke-linecap="round" stroke-linejoin="round" stroke-miterlimit="10" stroke-width="2" points="51.586 50.587 51.586 68 21.414 68 21.414 50.587"/><line x1="61.145" x2="61.145" y1="20.335" y2="52.285" fill="none" stroke="#000" stroke-linecap="round" stroke-linejoin="round" stroke-miterlimit="10" stroke-width="2"/><polyline fill="none" stroke="#000" stroke-linecap="round" stroke-linejoin="round" stroke-miterlimit="10" stroke-width="2" points="46.783 44.453 46.783 63.756 26.217 63.756 26.217 44.453"/><line x1="29.528" x2="43.472" y1="48.378" y2="48.378" fill="none" stroke="#000" stroke-linecap="round" stroke-linejoin="round" stroke-miterlimit="10" stroke-width="2"/><line x1="29.528" x2="43.472" y1="53.205" y2="53.205" fill="none" stroke="#000" stroke-linecap="round" stroke-linejoin="round" stroke-miterlimit="10" stroke-width="2"/><line x1="29.528" x2="43.472" y1="58.504" y2="58.504" fill="none" stroke="#000" stroke-linecap="round" stroke-linejoin="round" stroke-miterlimit="10" stroke-width="2"/><line x1="11.5" x2="11.5" y1="20.335" y2="52.285" fill="none" stroke="#000" stroke-linecap="round" stroke-linejoin="round" stroke-miterlimit="10" stroke-width="2"/><path fill="none" stroke="#000" stroke-linecap="round" stroke-linejoin="round" stroke-miterlimit="10" stroke-width="2" d="M16.5,52.2851v-3.1353c0-2.6048,2.1116-4.7164,4.7164-4.7164h30.5672c2.6048,0,4.7164,2.1116,4.7164,4.7164v3.1353"/><polyline fill="none" stroke="#000" stroke-linecap="round" stroke-linejoin="round" stroke-miterlimit="10" stroke-width="2" points="56.5 56 68.5 56 68.5 15.929 4.5 15.929 4.5 56 16.5 56"/></g></svg>