<svg xmlns="http://www.w3.org/2000/svg" id="emoji" viewBox="0 0 72 72"><g id="line"><polyline fill="none" stroke="#000" stroke-linecap="round" stroke-linejoin="round" stroke-miterlimit="10" stroke-width="2" points="11.751 21.619 11.763 42.312 59.749 42.312 59.737 21.619"/><rect width="48.011" height="6.617" x="11.726" y="15.003" fill="none" stroke="#000" stroke-linecap="round" stroke-linejoin="round" stroke-miterlimit="10" stroke-width="2"/><rect width="47.986" height="17.362" x="11.763" y="42.312" fill="none" stroke="#000" stroke-linecap="round" stroke-linejoin="round" stroke-miterlimit="10" stroke-width="2"/><rect width="14.426" height="6.848" x="28.61" y="47.061" fill="none" stroke="#000" stroke-linecap="round" stroke-linejoin="round" stroke-miterlimit="10" stroke-width="2"/><path fill="none" stroke="#000" stroke-linecap="round" stroke-linejoin="round" stroke-miterlimit="10" stroke-width="2" d="M28.1027,28.7207c-0.2997-0.2145-0.6669-0.3408-1.0635-0.3408h-7.9776c-1.0102,0-1.829,0.8189-1.829,1.829v0.8521"/><path fill="none" stroke="#000" stroke-linecap="round" stroke-linejoin="round" stroke-miterlimit="10" stroke-width="2" d="M40.9698,32.4574c-0.2972-0.6082-0.9219-1.0271-1.6444-1.0271h-7.9775c-1.0101,0-1.8291,0.8189-1.8291,1.829v1.2736H17.2326"/><path fill="none" stroke="#000" stroke-linecap="round" stroke-linejoin="round" stroke-miterlimit="10" stroke-width="2" d="M54.0031,38.3785v-1.1524c0-0.914-0.8188-1.655-1.829-1.655h-7.9776c-1.0101,0-1.829,0.741-1.829,1.655v1.1524H17.2326"/></g></svg>