<svg xmlns="http://www.w3.org/2000/svg" id="emoji" viewBox="0 0 72 72"><g id="line"><ellipse cx="21.997" cy="19.941" fill="none" fill-rule="evenodd" stroke="#000" stroke-linecap="round" stroke-linejoin="round" stroke-miterlimit="10" stroke-width="2" clip-rule="evenodd" rx="3" ry="3" transform="matrix(0.0096 -1 1 0.0096 1.8467 41.746)"/><rect width="48" height="16" x="11.997" y="12.214" fill="none" stroke="#000" stroke-linecap="round" stroke-linejoin="round" stroke-miterlimit="10" stroke-width="2"/><ellipse cx="49.998" cy="19.941" fill="none" fill-rule="evenodd" stroke="#000" stroke-linecap="round" stroke-linejoin="round" stroke-miterlimit="10" stroke-width="2" clip-rule="evenodd" rx="3" ry="3" transform="matrix(0.0096 -1 1 0.0096 29.5794 69.7454)"/><polyline fill="none" stroke="#000" stroke-linecap="round" stroke-linejoin="round" stroke-miterlimit="10" stroke-width="2" points="11.997 28.092 11.997 60.092 43.656 60.086 59.997 48.038 59.997 28.092"/><ellipse cx="18.217" cy="33.673" fill="#000" stroke="none" rx="2" ry="2" transform="matrix(0.0096 -1 1 0.0096 -15.6284 51.5668)"/><ellipse cx="24.217" cy="33.673" fill="#000" stroke="none" rx="2" ry="2" transform="matrix(0.0096 -1 1 0.0096 -9.6857 57.5665)"/><ellipse cx="30.217" cy="33.673" fill="#000" stroke="none" rx="2" ry="2" transform="matrix(0.0096 -1 1 0.0096 -3.743 63.5662)"/><ellipse cx="36.217" cy="33.673" fill="#000" stroke="none" rx="2" ry="2" transform="matrix(0.0096 -1 1 0.0096 2.1997 69.566)"/><ellipse cx="18.217" cy="39.673" fill="#000" stroke="none" rx="2" ry="2" transform="matrix(0.0096 -1 1 0.0096 -21.6282 57.5095)"/><ellipse cx="24.217" cy="39.673" fill="#000" stroke="none" rx="2" ry="2" transform="matrix(0.0096 -1 1 0.0096 -15.6855 63.5092)"/><ellipse cx="30.217" cy="39.673" fill="#000" stroke="none" rx="2" ry="2" transform="matrix(0.0096 -1 1 0.0096 -9.7428 69.5089)"/><ellipse cx="36.217" cy="39.673" fill="#000" stroke="none" rx="2" ry="2" transform="matrix(0.0096 -1 1 0.0096 -3.8001 75.5087)"/><ellipse cx="18.217" cy="45.673" fill="#000" stroke="none" rx="2" ry="2" transform="matrix(0.0096 -1 1 0.0096 -27.6279 63.4522)"/><polyline fill="none" stroke="#000" stroke-linecap="round" stroke-linejoin="round" stroke-miterlimit="10" stroke-width="2" points="59.869 48.038 43.138 48.038 43.138 53.517"/></g></svg>