<svg xmlns="http://www.w3.org/2000/svg" id="emoji" viewBox="0 0 72 72"><g id="line"><polyline fill="none" stroke="#000" stroke-linecap="round" stroke-linejoin="round" stroke-width="2" points="22 37.67 15.232 37.67 15.232 61.485 22 61.485"/><rect width="28.202" height="23.815" x="21.841" y="37.67" fill="none" stroke="#000" stroke-linecap="round" stroke-linejoin="round" stroke-width="2"/><polyline fill="none" stroke="#000" stroke-linecap="round" stroke-linejoin="round" stroke-width="2" points="50.101 37.623 56.758 37.682 56.546 61.496 49.889 61.437"/><polyline fill="none" stroke="#000" stroke-linecap="round" stroke-linejoin="round" stroke-width="2" points="42.69 37.67 49.931 37.67 49.931 61.485 42.69 61.485"/><path fill="none" stroke="#000" stroke-linecap="round" stroke-linejoin="round" stroke-width="2" d="M39.8086,15.1273a9.1779,9.1779,0,0,1,12.774-3.9026,9.3025,9.3025,0,0,1,3.5343,11.8122A8.7319,8.7319,0,0,1,47.5631,27.64a9.56,9.56,0,0,1-8.0854-6.2889"/><polyline fill="none" stroke="#000" stroke-linecap="round" stroke-linejoin="round" stroke-width="2" points="35.676 15.152 18.812 15.057 15 18.925 18.936 22.837 21.178 20.561 23.957 23.323 27.096 20.137 29.643 22.668 32.609 22.914 34.852 20.639 36.01 21.789"/><ellipse cx="51.08" cy="18.409" fill="none" stroke="#000" stroke-linecap="round" stroke-linejoin="round" stroke-width="2" rx="2.371" ry="2.381"/><rect width="60" height="60" x="6" y="6" fill="none" stroke="#000" stroke-linecap="round" stroke-linejoin="round" stroke-width="2"/><g><path fill="none" stroke="#000" stroke-linecap="round" stroke-linejoin="round" stroke-width="2" d="M30,37V34s0-3,3.5357-3H38.25"/><path fill="none" stroke="#000" stroke-linecap="round" stroke-linejoin="round" stroke-width="2" d="M42,37V34s0-3-3.5357-3H33.75"/></g></g></svg>