<svg xmlns="http://www.w3.org/2000/svg" id="emoji" viewBox="0 0 72 72"><g id="line"><line x1="41.719" x2="46.781" y1="38.509" y2="32.033" fill="#000" stroke="none"/><line x1="43.363" x2="38.703" y1="29.32" y2="35.08" fill="#000" stroke="none"/><polygon fill="none" stroke="#000" stroke-linecap="round" stroke-linejoin="round" stroke-miterlimit="10" stroke-width="2" points="52 58.906 40.902 43.176 37.808 40.941 27.23 26.226 24.294 28.351 34.871 43.066 36.008 46.717 47.497 62.227"/><path fill="none" stroke="#000" stroke-linecap="round" stroke-linejoin="round" stroke-miterlimit="10" stroke-width="2" d="M12.5106,19.7899l5.7909,8.029l10.323-7.4455l-3.3091-4.588c0,0,6.882-4.9637,10.8306-4.3242c0,0-6.5903-3.0933-13.3124,0.8832 S12.5106,19.7899,12.5106,19.7899z"/><path fill="none" stroke="#000" stroke-linecap="round" stroke-linejoin="round" stroke-miterlimit="10" stroke-width="2" d="M9.9316,22.7333l4.6653,6.5229l0,0c-0.4717,1.2669-1.6524,2.1256-2.9933,2.1771h0l-4.6653-6.5229l0,0 C7.1702,23.4779,8.5104,22.5031,9.9316,22.7333L9.9316,22.7333z"/><line x1="41.289" x2="46.352" y1="38.509" y2="32.033" fill="none" stroke="#000" stroke-linecap="round" stroke-linejoin="round" stroke-miterlimit="10" stroke-width="2"/><line x1="42.933" x2="38.274" y1="29.32" y2="35.08" fill="none" stroke="#000" stroke-linecap="round" stroke-linejoin="round" stroke-miterlimit="10" stroke-width="2"/><path fill="none" stroke="#000" stroke-linecap="round" stroke-linejoin="round" stroke-miterlimit="10" stroke-width="2" d="M46.3516,32.0332c3.2442,2.5754,8.6578,1.1565,12.0916-3.169s3.5876-9.9199,0.3434-12.4953l-5.1471,6.4838l-2.8327-0.0507 l-0.6772-2.7661l5.1323-6.4651c-3.2442-2.5754-8.6578-1.1565-12.0916,3.169c-3.4338,4.3256-3.5876,9.9199-0.3434,12.4953"/><path fill="none" stroke="#000" stroke-miterlimit="10" d="M65.7251,28.3957"/><path fill="none" stroke="#000" stroke-linecap="round" stroke-linejoin="round" stroke-miterlimit="10" stroke-width="2" d="M50,25.9064"/><polyline fill="none" stroke="#000" stroke-linecap="round" stroke-linejoin="round" stroke-miterlimit="10" stroke-width="2" points="30.818 44.386 19 58.906 23 61.906 32.959 49.166"/></g></svg>