<svg xmlns="http://www.w3.org/2000/svg" id="emoji" viewBox="0 0 72 72"><g id="line"><polyline fill="none" stroke="#000" stroke-linecap="round" stroke-linejoin="round" stroke-miterlimit="10" stroke-width="1.56" points="19.974 39.139 7.542 34.736 4.475 35.809 12.644 43.131"/><path fill="none" stroke="#000" stroke-linecap="round" stroke-linejoin="round" stroke-miterlimit="10" stroke-width="1.56" d="M26.6131,39.0394"/><path fill="none" stroke="#000" stroke-linecap="round" stroke-linejoin="round" stroke-miterlimit="10" stroke-width="1.56" d="M21.3658,40.2489"/><path fill="none" stroke="#000" stroke-linecap="round" stroke-linejoin="round" stroke-miterlimit="10" stroke-width="1.56" d="M14.0356,44.2409"/><polyline fill="none" stroke="#000" stroke-linecap="round" stroke-linejoin="round" stroke-miterlimit="10" stroke-width="1.56" points="47.051 34.693 22.445 32.641 20.352 34.134 37.106 40.113"/><path fill="none" stroke="#000" stroke-linecap="round" stroke-linejoin="round" stroke-miterlimit="10" stroke-width="1.56" d="M43.174,31.3231l11.1493-4.4864c1.3266-0.5338,2.7434-0.7839,4.1727-0.74c3.6995,0.1136,10.3898,0.6672,8.0573,3.2304 c-3.1706,3.4839-25.4249,12.196-32.0018,14.6509s-14.7118,3.7502-20.337,3.8591c-4.9236,0.0953,0.5896-2.8912,0.5896-2.8912 s6.2557-3.55,9.0249-4.7568l2.7841-1.2132"/></g></svg>