<svg xmlns="http://www.w3.org/2000/svg" id="emoji" viewBox="0 0 72 72"><g id="line"><path fill="none" stroke="#000" stroke-linecap="round" stroke-linejoin="round" stroke-miterlimit="10" stroke-width="1.56" d="M25.456,30.229"/><polyline fill="none" stroke="#000" stroke-linecap="round" stroke-linejoin="round" stroke-miterlimit="10" stroke-width="1.56" points="20.382 26.398 14.094 15.934 11.016 14.893 12.147 25.038"/><path fill="none" stroke="#000" stroke-linecap="round" stroke-linejoin="round" stroke-miterlimit="10" stroke-width="1.56" d="M20.5745,27.9556"/><path fill="none" stroke="#000" stroke-linecap="round" stroke-linejoin="round" stroke-miterlimit="10" stroke-width="1.56" d="M12.3393,26.5955"/><polyline fill="none" stroke="#000" stroke-linecap="round" stroke-linejoin="round" stroke-miterlimit="10" stroke-width="1.56" points="44.245 39.371 26.105 22.62 23.535 22.51 33.07 37.529"/><ellipse cx="32.453" cy="44.192" fill="#000" stroke="none" rx="2" ry="2" transform="matrix(0.3202 -0.9473 0.9473 0.3202 -19.8042 60.7858)"/><ellipse cx="37.772" cy="45.77" fill="#000" stroke="none" rx="2" ry="2" transform="matrix(0.3202 -0.9473 0.9473 0.3202 -17.683 66.8983)"/><path fill="none" stroke="#000" stroke-linecap="round" stroke-linejoin="round" stroke-miterlimit="10" stroke-width="1.56" d="M43.2603,34.3292l11.4341,3.2856c1.4513,0.417,2.7953,1.1264,3.9549,2.0935c2.86,2.3851,7.6527,6.8448,4.2739,7.425 c-4.6427,0.7974-27.5488-6.0191-34.2447-8.128c-6.6958-2.109-13.907-6.0905-18.4097-9.4641 c-3.941-2.9527,2.243-1.9172,2.243-1.9172s7.116,1.0479,10.0418,1.7994l2.9414,0.7554"/></g></svg>