<svg xmlns="http://www.w3.org/2000/svg" id="emoji" viewBox="0 0 72 72"><g id="line"><ellipse cx="16.156" cy="50.893" fill="none" stroke="#000" stroke-miterlimit="10" stroke-width="2" rx="5.476" ry="5.476" transform="matrix(0.9997 -0.0233 0.0233 0.9997 -1.1828 0.3907)"/><circle cx="51.398" cy="50.893" r="5.476" fill="none" stroke="#000" stroke-miterlimit="10" stroke-width="2"/><path fill="none" stroke="#000" stroke-linecap="round" stroke-linejoin="round" stroke-miterlimit="10" stroke-width="2" d="M26.2624,50.7765c-0.0016-0.4688-0.0365-0.9374-0.1044-1.4022c-0.2986-2.0411-1.2365-4.0074-2.8138-5.5781 c-3.8908-3.8746-10.1993-3.8746-14.0904,0.0001"/><path fill="none" stroke="#000" stroke-linecap="round" stroke-linejoin="round" stroke-miterlimit="10" stroke-width="2" d="M61.6972,50.7765c0-5.4798-4.4421-9.9218-9.9218-9.9218c-5.4795,0-9.9216,4.442-9.9216,9.9218"/><rect width="18.426" height="5.67" x="40.436" y="29.516" fill="none" stroke="#000" stroke-linecap="round" stroke-linejoin="round" stroke-miterlimit="10" stroke-width="2"/><polyline fill="none" stroke="#000" stroke-linecap="round" stroke-linejoin="round" stroke-miterlimit="10" stroke-width="2" points="14.923 40.855 23.428 23.846 29.097 23.846"/><line x1="26.262" x2="41.854" y1="50.893" y2="50.893" fill="none" stroke="#000" stroke-linecap="round" stroke-linejoin="round" stroke-miterlimit="10" stroke-width="2"/><path fill="none" stroke="#000" stroke-linecap="round" stroke-linejoin="round" stroke-miterlimit="10" stroke-width="2" d="M40.4364,35.1851c0,0-5.6696,21.2609-17.0087,0"/><path fill="none" stroke="#000" stroke-linecap="round" stroke-linejoin="round" stroke-miterlimit="10" stroke-width="2" d="M59.9021,43.3186"/><path fill="none" stroke="#000" stroke-linecap="round" stroke-linejoin="round" stroke-miterlimit="10" stroke-width="2" d="M58.8625,35.1851"/><path fill="none" stroke="#000" stroke-linecap="round" stroke-linejoin="round" stroke-miterlimit="10" stroke-width="2" d="M58.8625,35.1851c0,0,4.2521,7.0871,2.8347,15.5914"/></g></svg>