<svg xmlns="http://www.w3.org/2000/svg" id="emoji" viewBox="0 0 72 72"><g id="line"><path fill="none" stroke="#000" stroke-linecap="round" stroke-linejoin="round" stroke-width="2" d="M58.4243,38.5883c-.468-2.7025-2.34-6.2155-8.8182-6.6811C33.9172,30.78,34.3869,14.4334,34.3869,14.4334H17.6646s-.47,13.2463-2.3486,17.6617a20.2037,20.2037,0,0,0-1.4092,6.494"/><line x1="34.795" x2="32.373" y1="18.453" y2="18.453" fill="none" stroke="#000" stroke-linecap="round" stroke-linejoin="round" stroke-width="2"/><line x1="35.799" x2="33.377" y1="22.129" y2="22.129" fill="none" stroke="#000" stroke-linecap="round" stroke-linejoin="round" stroke-width="2"/><line x1="37.663" x2="35.241" y1="25.633" y2="25.633" fill="none" stroke="#000" stroke-linecap="round" stroke-linejoin="round" stroke-width="2"/><line x1="40.135" x2="37.714" y1="28.566" y2="28.566" fill="none" stroke="#000" stroke-linecap="round" stroke-linejoin="round" stroke-width="2"/><line x1="24.097" x2="29.656" y1="41.772" y2="33.98" fill="none" stroke="#000" stroke-linecap="round" stroke-linejoin="round" stroke-width="2"/><line x1="28.602" x2="34.161" y1="41.772" y2="33.98" fill="none" stroke="#000" stroke-linecap="round" stroke-linejoin="round" stroke-width="2"/><line x1="32.889" x2="38.448" y1="41.772" y2="33.98" fill="none" stroke="#000" stroke-linecap="round" stroke-linejoin="round" stroke-width="2"/><line x1="37.356" x2="42.915" y1="41.772" y2="33.98" fill="none" stroke="#000" stroke-linecap="round" stroke-linejoin="round" stroke-width="2"/><path fill="none" stroke="#000" stroke-linecap="round" stroke-linejoin="round" stroke-width="2" d="M21.2191,41.7715H58.4438a1.8324,1.8324,0,0,1,1.827,1.8271h0a1.8324,1.8324,0,0,1-1.827,1.8271H14.3572A1.8325,1.8325,0,0,1,12.53,43.5986h0a1.8325,1.8325,0,0,1,1.8271-1.8271H16.416"/><line x1="29.089" x2="40.34" y1="49.188" y2="49.188" fill="none" stroke="#000" stroke-linecap="round" stroke-linejoin="round" stroke-width="2"/><polyline fill="none" stroke="#000" stroke-linecap="round" stroke-linejoin="round" stroke-width="2" points="56.869 45.426 61.233 48.528 57.117 54.091 54.275 51.748"/><circle cx="22.416" cy="54.709" r="5" fill="none" stroke="#000" stroke-linecap="round" stroke-linejoin="round" stroke-width="2"/><circle cx="46.669" cy="54.709" r="5" fill="none" stroke="#000" stroke-linecap="round" stroke-linejoin="round" stroke-width="2"/><line x1="16.486" x2="17.2" y1="47.82" y2="48.869" fill="none" stroke="#000" stroke-linecap="round" stroke-linejoin="round" stroke-width="2"/><line x1="52.917" x2="52.204" y1="47.82" y2="48.869" fill="none" stroke="#000" stroke-linecap="round" stroke-linejoin="round" stroke-width="2"/></g></svg>