<svg xmlns="http://www.w3.org/2000/svg" id="emoji" version="1.1" viewBox="0 0 72 72"><g id="line-supplement"><path fill="none" stroke="#000" stroke-linecap="round" stroke-linejoin="round" stroke-miterlimit="10" stroke-width="1.943" d="M26.51,14.13h-23"/><path fill="none" stroke="#000" stroke-linecap="round" stroke-linejoin="round" stroke-miterlimit="10" stroke-width="1.974" d="M57.4035,12.0455L34.4427,17.485"/></g><g id="line"><path fill="none" stroke="#000" stroke-linecap="round" stroke-linejoin="round" stroke-miterlimit="10" stroke-width="2" d="M21.8093,7.0316"/><path fill="none" stroke="#000" stroke-linecap="round" stroke-linejoin="round" stroke-miterlimit="10" stroke-width="2" d="M45.7952,6.3333"/><path fill="none" stroke="#000" stroke-linecap="round" stroke-linejoin="round" stroke-miterlimit="10" stroke-width="2" d="M48.9142,6.3333"/><line x1="15" x2="15" y1="44" y2="67" fill="none" stroke="#000" stroke-linecap="round" stroke-linejoin="round" stroke-miterlimit="10" stroke-width="2"/><line x1="4" x2="26" y1="67" y2="67" fill="none" stroke="#000" stroke-linecap="round" stroke-linejoin="round" stroke-miterlimit="10" stroke-width="2"/><path fill="none" stroke="#000" stroke-linecap="round" stroke-linejoin="round" stroke-miterlimit="10" stroke-width="1.974" d="M3.0427,5C3.0168,5.9411,3,6.8895,3,7.85C3,27.2628,8.3726,43,15,43S27,27.2628,27,7.85c0-0.9605-0.0168-1.9089-0.0427-2.85"/><line x1="52.854" x2="58.176" y1="43.767" y2="66.143" fill="none" stroke="#000" stroke-linecap="round" stroke-linejoin="round" stroke-miterlimit="10" stroke-width="2"/><line x1="47.474" x2="68.877" y1="68.688" y2="63.598" fill="none" stroke="#000" stroke-linecap="round" stroke-linejoin="round" stroke-miterlimit="10" stroke-width="2"/><path fill="none" stroke="#000" stroke-linecap="round" stroke-linejoin="round" stroke-miterlimit="10" stroke-width="1.974" d="M32.1972,8.5922c0.1926,0.9215,0.3957,1.8481,0.6179,2.7825c4.4918,18.886,13.3599,32.953,19.8074,31.4195 s8.033-18.0867,3.5413-36.9727c-0.2222-0.9344-0.4581-1.8532-0.7009-2.7628"/></g></svg>