<svg xmlns="http://www.w3.org/2000/svg" id="emoji" version="1.1" viewBox="0 0 72 72"><g id="line"><polygon fill="none" stroke="#000" stroke-linecap="round" stroke-linejoin="round" stroke-miterlimit="10" stroke-width="2" points="62.618 60.962 48.01 60.962 48.01 42.326 59.836 42.326 59.836 44.438 62.618 44.438"/><polyline fill="none" stroke="#000" stroke-linecap="round" stroke-linejoin="round" stroke-miterlimit="10" stroke-width="2" points="51.214 38.863 66.04 38.863 66.04 57.499"/><line x1="59.836" x2="62.618" y1="42.326" y2="44.438" fill="none" stroke="#000" stroke-linecap="round" stroke-linejoin="round" stroke-miterlimit="10" stroke-width="2"/><line x1="50.955" x2="59.388" y1="48.535" y2="48.535" fill="none" stroke="#000" stroke-linecap="round" stroke-linejoin="round" stroke-miterlimit="10" stroke-width="2"/><path fill="none" stroke="#000" stroke-linecap="round" stroke-linejoin="round" stroke-miterlimit="10" stroke-width="2" d="M59.3875,50.583"/><path fill="none" stroke="#000" stroke-linecap="round" stroke-linejoin="round" stroke-miterlimit="10" stroke-width="2" d="M50.9548,50.583"/><line x1="50.955" x2="59.388" y1="52.631" y2="52.631" fill="none" stroke="#000" stroke-linecap="round" stroke-linejoin="round" stroke-miterlimit="10" stroke-width="2"/><line x1="50.955" x2="59.388" y1="56.215" y2="56.215" fill="none" stroke="#000" stroke-linecap="round" stroke-linejoin="round" stroke-miterlimit="10" stroke-width="2"/><path fill="none" stroke="#000" stroke-linecap="round" stroke-linejoin="round" stroke-miterlimit="10" stroke-width="2" d="M33.4552,48.5348c0,0-1.2063,6.0215,2.3073,6.0215s2.3073-6.0215,2.3073-6.0215"/><path fill="none" stroke="#000" stroke-linecap="round" stroke-linejoin="round" stroke-miterlimit="10" stroke-width="2" d="M32.5649,57.8011"/><path fill="none" stroke="#000" stroke-linecap="round" stroke-linejoin="round" stroke-miterlimit="10" stroke-width="2" d="M38.9601,57.8011"/><line x1="44.7" x2="38.96" y1="55.629" y2="57.807" fill="none" stroke="#000" stroke-linecap="round" stroke-linejoin="round" stroke-miterlimit="10" stroke-width="2"/><path fill="none" stroke="#000" stroke-linecap="round" stroke-linejoin="round" stroke-miterlimit="10" stroke-width="2" d="M16.825,57.8861c0,0-2-13,10-13c3.1919,2.1279,5.9264,3.5984,9,3.5921H35.7c3.0736,0.0063,5.8081-1.4642,9-3.5921"/><polyline fill="none" stroke="#000" stroke-linecap="round" stroke-linejoin="round" stroke-miterlimit="10" stroke-width="2" points="34.912 54.556 32.497 57.801 26.825 44.886 22.868 53.37 32.325 57.801"/><polyline fill="none" stroke="#000" stroke-linecap="round" stroke-linejoin="round" stroke-miterlimit="10" stroke-width="2" points="44.7 44.886 39.028 57.801 36.613 54.556"/><path fill="none" stroke="#000" stroke-linecap="round" stroke-linejoin="round" stroke-miterlimit="10" stroke-width="2" d="M27.4414,25.171"/><path d="M41.9529,27.0468c0,1.1046-0.8954,2-2,2s-2-0.8954-2-2s0.8954-2,2-2C41.0573,25.0472,41.9525,25.9424,41.9529,27.0468"/><path d="M33.9529,27.0468c0,1.1046-0.8954,2-2,2s-2-0.8954-2-2s0.8954-2,2-2C33.0573,25.0472,33.9525,25.9424,33.9529,27.0468"/><path d="M35.9527,37.0492c-1.2005-0.0116-2.3813-0.3055-3.4472-0.8579c-0.494-0.247-0.6943-0.8477-0.4473-1.3418 c0.247-0.4941,0.8477-0.6943,1.3418-0.4473c1.5934,0.8593,3.5121,0.8593,5.1055,0c0.494-0.247,1.0947-0.0468,1.3418,0.4473 s0.0468,1.0947-0.4473,1.3418C38.3341,36.7437,37.1532,37.0376,35.9527,37.0492z"/><path fill="none" stroke="#000" stroke-linecap="round" stroke-linejoin="round" stroke-width="2" d="M26,36.5808c-4,0-4-6-4-13 s4-14,14-14s14,7,14,14s0,13-4,13"/><path fill="none" stroke="#000" stroke-linejoin="round" stroke-width="2" d="M24.9365,28.5808c0,9,4.9365,14,11,14 c5.9365,0,11.0635-5,11.0635-14c0.0245-1.7187-0.3164-3.4229-1-5c-3-3-7-8-7-8c-4,3-7,6-13,7.0005 C26,22.5808,24.9365,23.58,24.9365,28.5808z"/></g></svg>