<svg xmlns="http://www.w3.org/2000/svg" id="emoji" viewBox="0 0 72 72"><g id="line"><path fill="none" stroke="#000" stroke-linecap="round" stroke-linejoin="round" stroke-width="2" d="M45.3656,37.4681V54.0234a.919.919,0,0,1-.9727.9727H18.0135a.9747.9747,0,0,1-.9727-.9727V15.117a.9748.9748,0,0,1,.9727-.9727H31.572"/><circle cx="31.203" cy="59.252" r="1.945" fill="#000"/><line x1="33.334" x2="26.34" y1="11.226" y2="11.226" fill="none" stroke="#000" stroke-linecap="round" stroke-linejoin="round" stroke-width="2"/><path fill="none" stroke="#000" stroke-linecap="round" stroke-linejoin="round" stroke-width="2" d="M48.2248,36.861v23.38a3.6908,3.6908,0,0,1-3.68,3.68H17.8616a3.6908,3.6908,0,0,1-3.68-3.68V11.6587a3.6908,3.6908,0,0,1,3.68-3.68H36.9708"/><polyline fill="none" stroke="#000" stroke-linecap="round" stroke-linejoin="round" stroke-width="2.5" points="46.892 26.339 46.892 20.594 43.989 20.594"/><line x1="49.652" x2="43.923" y1="26.339" y2="26.339" fill="none" stroke="#000" stroke-linecap="round" stroke-linejoin="round" stroke-width="2.5"/><circle cx="46.589" cy="15.602" r="1.909"/><path fill="none" stroke="#000" stroke-linecap="round" stroke-linejoin="round" stroke-width="2" d="M46.2851,7.6752A13.0261,13.0261,0,0,0,37.2562,30.1l-2.6037,8.36,7.0766-5.5479a13.03,13.03,0,1,0,4.556-25.2361Z"/></g></svg>