<svg xmlns="http://www.w3.org/2000/svg" id="emoji" viewBox="0 0 72 72"><g id="line"><polyline fill="none" stroke="#000" stroke-linecap="round" stroke-miterlimit="10" stroke-width="2" points="8.244 62.609 21.297 43.369 31.046 36.135 37.309 37.608 42.625 36.135 47.753 42.546 56.1 48.371 62.456 62.759"/><polyline fill="none" stroke="#000" stroke-linecap="round" stroke-linejoin="round" stroke-width="2" points="25.214 40.46 26.868 43.992 25.254 50.276 26.17 57.589"/><polyline fill="none" stroke="#000" stroke-linecap="round" stroke-linejoin="round" stroke-width="2" points="47.753 42.546 44.249 48.626 47.364 51.131 45.786 56.065"/><path fill="none" stroke="#000" stroke-linecap="round" stroke-linejoin="round" stroke-width="2" d="M32.2514,22.279a5.6425,5.6425,0,1,0,8.9467,6.6894,7.7871,7.7871,0,0,0,2.7524.5077"/><path fill="none" stroke="#000" stroke-linecap="round" stroke-linejoin="round" stroke-width="2" d="M40.7382,8.1368a4.8606,4.8606,0,0,0-4.3248,2.6653,6.57,6.57,0,0,0-10.8313,3.6436,5.058,5.058,0,0,0-7.94,4.1628"/><path fill="none" stroke="#000" stroke-linecap="round" stroke-linejoin="round" stroke-width="2" d="M43.9506,13.8337a7.8213,7.8213,0,0,1,7.8212,7.8213"/><path fill="none" stroke="#000" stroke-linecap="round" stroke-linejoin="round" stroke-width="2" d="M51.7575,21.2458a4.883,4.883,0,0,1,6.1912,4.7005"/><circle cx="64.01" cy="11.748" r="1.48"/><circle cx="58.679" cy="18.6" r="1.48"/><circle cx="46.448" cy="18.6" r="1.48"/><circle cx="64.34" cy="26.451" r="1.48"/><circle cx="58.679" cy="32.963" r="1.48"/><circle cx="64.01" cy="40.145" r="1.48"/><circle cx="58.679" cy="45.996" r="1.48"/><circle cx="64.01" cy="52.518" r="1.48"/><circle cx="57.359" cy="60.359" r="1.48"/><circle cx="52.916" cy="11.748" r="1.48"/><circle cx="41.514" cy="11.748" r="1.48"/><circle cx="52.916" cy="26.451" r="1.48"/><circle cx="47.448" cy="32.963" r="1.48"/><circle cx="52.916" cy="40.145" r="1.48"/><circle cx="52.256" cy="52.518" r="1.48"/><circle cx="48.108" cy="60.359" r="1.48"/><circle cx="41.514" cy="40.145" r="1.48"/></g></svg>