<svg xmlns="http://www.w3.org/2000/svg" id="emoji" viewBox="0 0 72 72"><g id="line"><polyline fill="none" stroke="#000" stroke-linecap="round" stroke-linejoin="round" stroke-width="2" points="49.452 47.493 52.085 47.654 61.412 55.916"/><polyline fill="none" stroke="#000" stroke-linecap="round" stroke-miterlimit="10" stroke-width="2" points="9.08 58.591 13.016 25.362 14.297 19.248 20.701 13.427 26.348 18.902 28.209 25.424"/><line x1="20.907" x2="27.78" y1="34.315" y2="58.769" fill="none" stroke="#000" stroke-linecap="round" stroke-miterlimit="10" stroke-width="2"/><polyline fill="none" stroke="#000" stroke-linecap="round" stroke-miterlimit="10" stroke-width="2" points="21.963 30.046 19.099 18.163 17.63 16.196"/><path fill="none" stroke="#000" stroke-linecap="round" stroke-miterlimit="10" stroke-width="2" d="M34.6511,34.4687a2.552,2.552,0,1,1,2.552,2.552"/><circle cx="34.743" cy="22.327" r="2.552" fill="none" stroke="#000" stroke-linecap="round" stroke-miterlimit="10" stroke-width="2"/><path fill="none" stroke="#000" stroke-linecap="round" stroke-miterlimit="10" stroke-width="2" d="M49.4511,28.0815a2.5521,2.5521,0,1,1-2.552,2.552"/><path fill="none" stroke="#000" stroke-linecap="round" stroke-miterlimit="10" stroke-width="2" d="M58.8643,43.1092a4.8017,4.8017,0,0,1,2.5533,8.45"/><path fill="none" stroke="#000" stroke-linecap="round" stroke-miterlimit="10" stroke-width="2" d="M48.7769,35.9282a4.8018,4.8018,0,0,1,5.3262,7.9668"/><circle cx="44.334" cy="47.187" r="2.552" fill="none" stroke="#000" stroke-linecap="round" stroke-miterlimit="10" stroke-width="2"/><circle cx="32.83" cy="39.743" r="2.552" fill="none" stroke="#000" stroke-linecap="round" stroke-miterlimit="10" stroke-width="2"/><circle cx="45.433" cy="26.877" r="1.278"/><circle cx="42.125" cy="31.038" r="1.278"/><circle cx="38.08" cy="27.414" r="1.278"/><circle cx="29.857" cy="19.738" r="1.278"/><circle cx="33.105" cy="30.459" r="1.278"/></g></svg>