<svg xmlns="http://www.w3.org/2000/svg" id="emoji" viewBox="0 0 72 72"><g id="line"><polyline fill="none" stroke="#000" stroke-linecap="round" stroke-linejoin="round" stroke-width="2" points="36.336 49.778 5.013 49.778 5.013 22.918 66.962 22.918 66.962 49.778 36.655 49.778"/><line x1="36.654" x2="36.344" y1="49.778" y2="49.778" fill="none" stroke="#000" stroke-linecap="round" stroke-linejoin="round" stroke-width="2"/><polyline fill="none" stroke="#000" stroke-linecap="round" stroke-linejoin="round" stroke-width="2" points="36.654 49.839 43.414 49.839 43.414 60"/><polyline fill="none" stroke="#000" stroke-linecap="round" stroke-linejoin="round" stroke-width="2" points="29.414 60 29.414 49.839 36.344 49.839"/><rect width="14" height="6.69" x="29.414" y="16.228" fill="none" stroke="#000" stroke-linecap="round" stroke-linejoin="round" stroke-width="2"/><path fill="none" stroke="#000" stroke-linecap="round" stroke-linejoin="round" stroke-width="1.6" d="M34.1512,10.9922A3.8885,3.8885,0,0,1,32.697,12.86a1.65,1.65,0,0,1-1.4916.2269c-1.0111-.4-1.3315-1.9863-.7156-3.543s1.9348-2.4944,2.9458-2.0944S34.7671,9.4355,34.1512,10.9922Z"/><line x1="32.321" x2="32.321" y1="16.226" y2="13.052" fill="none" stroke="#000" stroke-linecap="round" stroke-linejoin="round" stroke-width="1.6"/><polyline fill="none" stroke="#000" stroke-linecap="round" stroke-linejoin="round" stroke-width="1.6" points="47.914 22.913 47.914 10.268 55.539 10.268"/><line x1="50.873" x2="50.873" y1="8.643" y2="11.768" fill="none" stroke="#000" stroke-linecap="round" stroke-linejoin="round" stroke-width="1.6"/><line x1="53.873" x2="53.873" y1="8.643" y2="11.768" fill="none" stroke="#000" stroke-linecap="round" stroke-linejoin="round" stroke-width="1.6"/><polyline fill="none" stroke="#000" stroke-linecap="round" stroke-linejoin="round" stroke-width="1.6" points="19.482 22.445 19.482 17.204 15.642 17.204 15.642 11.445"/><polyline fill="none" stroke="#000" stroke-linecap="round" stroke-linejoin="round" stroke-width="1.6" points="19.107 17.204 22.947 17.204 22.947 11.445"/><line x1="19.498" x2="19.498" y1="12.831" y2="17.487" fill="none" stroke="#000" stroke-linecap="round" stroke-linejoin="round" stroke-width="1.6"/><polyline fill="none" stroke="#000" stroke-linecap="round" stroke-linejoin="round" stroke-width="1.6" points="14.031 34.285 9.562 34.285 9.562 42.61"/><line x1="6.998" x2="6.998" y1="50.366" y2="60" fill="none" stroke="#000" stroke-linecap="round" stroke-linejoin="round" stroke-width="2"/><line x1="17.998" x2="17.998" y1="49.839" y2="60" fill="none" stroke="#000" stroke-linecap="round" stroke-linejoin="round" stroke-width="2"/><line x1="49.998" x2="49.998" y1="49.839" y2="60" fill="none" stroke="#000" stroke-linecap="round" stroke-linejoin="round" stroke-width="2"/><line x1="61.998" x2="61.998" y1="49.839" y2="60" fill="none" stroke="#000" stroke-linecap="round" stroke-linejoin="round" stroke-width="2"/><polyline fill="none" stroke="#000" stroke-linecap="round" stroke-linejoin="round" stroke-width="1.6" points="18.733 33.718 18.733 29.188 62.462 29.188"/><polyline fill="none" stroke="#000" stroke-linecap="round" stroke-linejoin="round" stroke-width="1.6" points="18.733 42.518 18.733 37.188 62.462 37.188"/></g></svg>