<svg xmlns="http://www.w3.org/2000/svg" id="emoji" viewBox="0 0 72 72"><g id="line"><path fill="none" stroke="#000" stroke-linecap="round" stroke-linejoin="round" stroke-width="2" d="M16.3024,57.8917V54.8151c0-5.1217,5.1357-9.23,10.2554-9.23q9.23,7.6915,18.46,0c5.1216,0,10.2554,4.1082,10.2554,9.23v3.0766"/><line x1="27.689" x2="43.886" y1="18.338" y2="18.338" fill="none" stroke="#000" stroke-linecap="round" stroke-linejoin="round" stroke-width="2"/><line x1="25.638" x2="45.938" y1="33.685" y2="33.685" fill="none" stroke="#000" stroke-linecap="round" stroke-linejoin="round" stroke-width="2"/><line x1="26.558" x2="26.558" y1="45.585" y2="57.95" fill="none" stroke="#000" stroke-linecap="round" stroke-linejoin="round" stroke-width="2"/><circle cx="35.593" cy="40.578" r="5.128" fill="none" stroke="#000" stroke-linecap="round" stroke-linejoin="round" stroke-width="2"/><ellipse cx="44.545" cy="38.517" fill="none" stroke="#000" stroke-linecap="round" stroke-linejoin="round" stroke-width="2" rx="3.086" ry="2.061" transform="translate(-13.5937 47.8818) rotate(-50)"/><ellipse cx="26.558" cy="38.517" fill="none" stroke="#000" stroke-linecap="round" stroke-linejoin="round" stroke-width="2" rx="2.061" ry="3.086" transform="translate(-18.5448 26.0823) rotate(-40)"/><path fill="none" stroke="#000" stroke-linecap="round" stroke-linejoin="round" stroke-width="2" d="M26.0369,35.6641A17.2426,17.2426,0,0,1,24.44,28.2772c0-3.369.9753-7.5655,3.0766-10.2554a9.755,9.755,0,0,1,.8615-.968,10.8875,10.8875,0,0,1,7.3428-2.8778h.0652a10.8875,10.8875,0,0,1,7.3428,2.8778,9.755,9.755,0,0,1,.8615.968c2.1013,2.69,3.0766,6.8864,3.0766,10.2554a17.2452,17.2452,0,0,1-1.5935,7.379"/><circle cx="47.067" cy="51.558" r="2.1"/></g></svg>