<svg xmlns="http://www.w3.org/2000/svg" id="emoji" version="1.1" viewBox="0 0 72 72"><g id="line"><path fill="none" stroke="#000" stroke-linecap="round" stroke-linejoin="round" stroke-width="2" d="M47.5055,25.7401h-23.011 l-1.7328,2.8825c-0.5174,0.8606-0.7908,1.8458-0.7908,2.85v16.6995c0.0001,1.8284,1.4822,3.3105,3.3106,3.3105h21.437 c1.8284,0,3.3105-1.4821,3.3106-3.3105V31.4726c0-1.0042-0.2734-1.9894-0.7908-2.85L47.5055,25.7401z"/><rect width="22.946" height="5.096" x="24.518" y="20.517" fill="none" stroke="#000" stroke-linecap="round" stroke-linejoin="round" stroke-width="2"/><line x1="28.326" x2="28.326" y1="20.517" y2="25.614" fill="none" stroke="#000" stroke-linecap="round" stroke-linejoin="round" stroke-width="2"/><line x1="32.163" x2="32.163" y1="20.517" y2="25.614" fill="none" stroke="#000" stroke-linecap="round" stroke-linejoin="round" stroke-width="2"/><line x1="36" x2="36" y1="20.517" y2="25.614" fill="none" stroke="#000" stroke-linecap="round" stroke-linejoin="round" stroke-width="2"/><line x1="39.837" x2="39.837" y1="20.517" y2="25.614" fill="none" stroke="#000" stroke-linecap="round" stroke-linejoin="round" stroke-width="2"/><line x1="43.674" x2="43.674" y1="20.517" y2="25.614" fill="none" stroke="#000" stroke-linecap="round" stroke-linejoin="round" stroke-width="2"/><path d="M37.9732,32.2155v4.73h4.7306v3.33h-4.7306v4.7307h-3.33v-4.7298h-4.73v-3.33h4.73v-4.73h3.33 M37.9732,30.2165h-3.33 c-1.1046,0-2,0.8954-2,2v2.73h-2.73c-1.1046,0-2,0.8954-2,2v3.33c0,1.1046,0.8954,2,2,2h2.73v2.7307c0,1.1046,0.8954,2,2,2h3.33 c1.1046,0,2-0.8954,2-2v-2.7307h2.7306c1.1046,0,2-0.8954,2-2v-3.33c0-1.1046-0.8954-2-2-2h-2.7306v-2.73 C39.9732,31.1119,39.0778,30.2165,37.9732,30.2165z"/></g></svg>